# xmcd
#
# Track frame offsets:
#	150
#	14724
#	30809
#	47477
#	68000
#	82606
#	99574
#	115206
#	132373
#	146037
#	166615
#	178451
#	198483
#	214216
#	235699
#	251434
#	265775
#	284979
#	304858
#	320321
#
# Disc length: 4505 seconds
#
# Revision: 2
# Processed by: cddbd v1.5.2PL0 Copyright (c) Steve Scherf et al.
# Submitted via: audiograbber 1.83.01
#
DISCID=19119714
DTITLE=Kurt Darren - Met Liefde... With Love...
DYEAR=1900
DGENRE=
TTITLE0=I will always love you 
TTITLE1=Three Times a Lady 
TTITLE2=Home 
TTITLE3=Something About The Way You Look Tonight 
TTITLE4=Against All Odds 
TTITLE5=I Will Love You All My Life 
TTITLE6=Don't Know Much 
TTITLE7=Unchained Melody 
TTITLE8=Wonderful Tonight 
TTITLE9=This I Promise You 
TTITLE10=You Are So Beautiful
TTITLE11=Glory of Love
TTITLE12=To Make You Feel My Love  
TTITLE13=Umbrella
TTITLE14=Now and Forever 
TTITLE15=You're Still The One 
TTITLE16=Have I told you laterly that I love you 
TTITLE17=Angel
TTITLE18=You were always on my mind 
TTITLE19=Elke dag by jou
EXTD=
EXTT0=
EXTT1=
EXTT2=
EXTT3=
EXTT4=
EXTT5=
EXTT6=
EXTT7=
EXTT8=
EXTT9=
EXTT10=
EXTT11=
EXTT12=
EXTT13=
EXTT14=
EXTT15=
EXTT16=
EXTT17=
EXTT18=
EXTT19=
PLAYORDER=
